<mxfile host="app.diagrams.net" modified="2021-07-03T06:23:20.694Z" agent="5.0 (Windows NT 10.0; Win64; x64) AppleWebKit/537.36 (KHTML, like Gecko) Chrome/91.0.4472.124 Safari/537.36" etag="_qMOBOltnXuelcLbMGzO" version="14.8.4" type="github">
  <diagram id="NEBiTBJ2l7Bz_ii22s3Z" name="Page-1">
    <mxGraphModel dx="544" dy="321" grid="1" gridSize="10" guides="1" tooltips="1" connect="1" arrows="1" fold="1" page="1" pageScale="1" pageWidth="827" pageHeight="1169" math="0" shadow="0">
      <root>
        <mxCell id="0" />
        <mxCell id="1" parent="0" />
        <mxCell id="8vXOLHCGzvZwmSVNUH3z-12" style="edgeStyle=none;rounded=0;orthogonalLoop=1;jettySize=auto;html=1;entryX=0;entryY=1;entryDx=0;entryDy=0;" edge="1" parent="1" source="8vXOLHCGzvZwmSVNUH3z-1" target="8vXOLHCGzvZwmSVNUH3z-2">
          <mxGeometry relative="1" as="geometry" />
        </mxCell>
        <mxCell id="8vXOLHCGzvZwmSVNUH3z-13" style="edgeStyle=none;rounded=0;orthogonalLoop=1;jettySize=auto;html=1;entryX=0;entryY=0.5;entryDx=0;entryDy=0;" edge="1" parent="1" source="8vXOLHCGzvZwmSVNUH3z-1" target="8vXOLHCGzvZwmSVNUH3z-3">
          <mxGeometry relative="1" as="geometry" />
        </mxCell>
        <mxCell id="8vXOLHCGzvZwmSVNUH3z-1" value="0" style="ellipse;whiteSpace=wrap;html=1;aspect=fixed;" vertex="1" parent="1">
          <mxGeometry x="260" y="450" width="30" height="30" as="geometry" />
        </mxCell>
        <mxCell id="8vXOLHCGzvZwmSVNUH3z-17" style="edgeStyle=none;rounded=0;orthogonalLoop=1;jettySize=auto;html=1;entryX=0.267;entryY=0.98;entryDx=0;entryDy=0;entryPerimeter=0;" edge="1" parent="1" source="8vXOLHCGzvZwmSVNUH3z-2" target="8vXOLHCGzvZwmSVNUH3z-4">
          <mxGeometry relative="1" as="geometry" />
        </mxCell>
        <mxCell id="8vXOLHCGzvZwmSVNUH3z-2" value="1" style="ellipse;whiteSpace=wrap;html=1;aspect=fixed;" vertex="1" parent="1">
          <mxGeometry x="310" y="400" width="30" height="30" as="geometry" />
        </mxCell>
        <mxCell id="8vXOLHCGzvZwmSVNUH3z-14" style="edgeStyle=none;rounded=0;orthogonalLoop=1;jettySize=auto;html=1;entryX=0;entryY=0.5;entryDx=0;entryDy=0;" edge="1" parent="1" source="8vXOLHCGzvZwmSVNUH3z-3" target="8vXOLHCGzvZwmSVNUH3z-6">
          <mxGeometry relative="1" as="geometry" />
        </mxCell>
        <mxCell id="8vXOLHCGzvZwmSVNUH3z-16" style="edgeStyle=none;rounded=0;orthogonalLoop=1;jettySize=auto;html=1;" edge="1" parent="1" source="8vXOLHCGzvZwmSVNUH3z-3" target="8vXOLHCGzvZwmSVNUH3z-5">
          <mxGeometry relative="1" as="geometry" />
        </mxCell>
        <mxCell id="8vXOLHCGzvZwmSVNUH3z-3" value="2" style="ellipse;whiteSpace=wrap;html=1;aspect=fixed;" vertex="1" parent="1">
          <mxGeometry x="360" y="450" width="30" height="30" as="geometry" />
        </mxCell>
        <mxCell id="8vXOLHCGzvZwmSVNUH3z-18" style="edgeStyle=none;rounded=0;orthogonalLoop=1;jettySize=auto;html=1;entryX=0;entryY=0.5;entryDx=0;entryDy=0;" edge="1" parent="1" source="8vXOLHCGzvZwmSVNUH3z-4" target="8vXOLHCGzvZwmSVNUH3z-7">
          <mxGeometry relative="1" as="geometry" />
        </mxCell>
        <mxCell id="8vXOLHCGzvZwmSVNUH3z-4" value="3" style="ellipse;whiteSpace=wrap;html=1;aspect=fixed;" vertex="1" parent="1">
          <mxGeometry x="360" y="330" width="30" height="30" as="geometry" />
        </mxCell>
        <mxCell id="8vXOLHCGzvZwmSVNUH3z-19" style="edgeStyle=none;rounded=0;orthogonalLoop=1;jettySize=auto;html=1;entryX=0.253;entryY=0.98;entryDx=0;entryDy=0;entryPerimeter=0;" edge="1" parent="1" source="8vXOLHCGzvZwmSVNUH3z-5" target="8vXOLHCGzvZwmSVNUH3z-7">
          <mxGeometry relative="1" as="geometry" />
        </mxCell>
        <mxCell id="8vXOLHCGzvZwmSVNUH3z-21" style="edgeStyle=none;rounded=0;orthogonalLoop=1;jettySize=auto;html=1;" edge="1" parent="1" source="8vXOLHCGzvZwmSVNUH3z-5" target="8vXOLHCGzvZwmSVNUH3z-8">
          <mxGeometry relative="1" as="geometry" />
        </mxCell>
        <mxCell id="8vXOLHCGzvZwmSVNUH3z-5" value="4" style="ellipse;whiteSpace=wrap;html=1;aspect=fixed;" vertex="1" parent="1">
          <mxGeometry x="414" y="400" width="30" height="30" as="geometry" />
        </mxCell>
        <mxCell id="8vXOLHCGzvZwmSVNUH3z-15" style="edgeStyle=none;rounded=0;orthogonalLoop=1;jettySize=auto;html=1;" edge="1" parent="1" source="8vXOLHCGzvZwmSVNUH3z-6" target="8vXOLHCGzvZwmSVNUH3z-9">
          <mxGeometry relative="1" as="geometry" />
        </mxCell>
        <mxCell id="8vXOLHCGzvZwmSVNUH3z-6" value="5" style="ellipse;whiteSpace=wrap;html=1;aspect=fixed;" vertex="1" parent="1">
          <mxGeometry x="460" y="450" width="30" height="30" as="geometry" />
        </mxCell>
        <mxCell id="8vXOLHCGzvZwmSVNUH3z-20" style="edgeStyle=none;rounded=0;orthogonalLoop=1;jettySize=auto;html=1;entryX=0;entryY=0.5;entryDx=0;entryDy=0;" edge="1" parent="1" source="8vXOLHCGzvZwmSVNUH3z-7" target="8vXOLHCGzvZwmSVNUH3z-11">
          <mxGeometry relative="1" as="geometry" />
        </mxCell>
        <mxCell id="8vXOLHCGzvZwmSVNUH3z-7" value="6" style="ellipse;whiteSpace=wrap;html=1;aspect=fixed;" vertex="1" parent="1">
          <mxGeometry x="480" y="330" width="30" height="30" as="geometry" />
        </mxCell>
        <mxCell id="8vXOLHCGzvZwmSVNUH3z-22" style="edgeStyle=none;rounded=0;orthogonalLoop=1;jettySize=auto;html=1;entryX=0;entryY=0.5;entryDx=0;entryDy=0;" edge="1" parent="1" source="8vXOLHCGzvZwmSVNUH3z-8" target="8vXOLHCGzvZwmSVNUH3z-10">
          <mxGeometry relative="1" as="geometry" />
        </mxCell>
        <mxCell id="8vXOLHCGzvZwmSVNUH3z-23" style="edgeStyle=none;rounded=0;orthogonalLoop=1;jettySize=auto;html=1;entryX=0;entryY=0;entryDx=0;entryDy=0;" edge="1" parent="1" source="8vXOLHCGzvZwmSVNUH3z-8" target="8vXOLHCGzvZwmSVNUH3z-9">
          <mxGeometry relative="1" as="geometry" />
        </mxCell>
        <mxCell id="8vXOLHCGzvZwmSVNUH3z-8" value="7" style="ellipse;whiteSpace=wrap;html=1;aspect=fixed;" vertex="1" parent="1">
          <mxGeometry x="500" y="400" width="30" height="30" as="geometry" />
        </mxCell>
        <mxCell id="8vXOLHCGzvZwmSVNUH3z-24" style="edgeStyle=none;rounded=0;orthogonalLoop=1;jettySize=auto;html=1;entryX=0.333;entryY=1;entryDx=0;entryDy=0;entryPerimeter=0;" edge="1" parent="1" source="8vXOLHCGzvZwmSVNUH3z-9" target="8vXOLHCGzvZwmSVNUH3z-10">
          <mxGeometry relative="1" as="geometry" />
        </mxCell>
        <mxCell id="8vXOLHCGzvZwmSVNUH3z-9" value="8" style="ellipse;whiteSpace=wrap;html=1;aspect=fixed;" vertex="1" parent="1">
          <mxGeometry x="550" y="450" width="30" height="30" as="geometry" />
        </mxCell>
        <mxCell id="8vXOLHCGzvZwmSVNUH3z-26" style="edgeStyle=none;rounded=0;orthogonalLoop=1;jettySize=auto;html=1;" edge="1" parent="1" source="8vXOLHCGzvZwmSVNUH3z-10" target="8vXOLHCGzvZwmSVNUH3z-11">
          <mxGeometry relative="1" as="geometry" />
        </mxCell>
        <mxCell id="8vXOLHCGzvZwmSVNUH3z-10" value="9" style="ellipse;whiteSpace=wrap;html=1;aspect=fixed;" vertex="1" parent="1">
          <mxGeometry x="590" y="400" width="30" height="30" as="geometry" />
        </mxCell>
        <mxCell id="8vXOLHCGzvZwmSVNUH3z-11" value="10" style="ellipse;whiteSpace=wrap;html=1;aspect=fixed;" vertex="1" parent="1">
          <mxGeometry x="610" y="330" width="30" height="30" as="geometry" />
        </mxCell>
      </root>
    </mxGraphModel>
  </diagram>
</mxfile>
